<?xml version="1.0" encoding="UTF-8"?><svg id="Layer_2" xmlns="http://www.w3.org/2000/svg" viewBox="0 0 256 256"><defs><style>.cls-1{fill:#fff;}.cls-2{fill:#ffd10a;}.cls-3{fill:#9a6c29;}.cls-4{fill:#271b1b;}</style></defs><g id="Layer_1-2"><g><circle id="SVGID" class="cls-2" cx="128" cy="128" r="128"/><g><g><path class="cls-4" d="M84.97,149.56c-2.39-5.78-3.67-12.2-3.67-18.81,0-17.71,3.85-42.85,16.24-55.42,5.14-6.51,11.01-12.3,16.42-18.63,0,0,10.55-5.32,10.74-8.26,.18-2.57-4.77-3.85-5.96-3.21,1.01-.55,4.68-1.84,6.7-5.14,2.48-3.95-7.16-3.3-7.16-3.3,0,0,2.84-5.32,.64-7.98-1.94-2.32-6.27-.21-7.59,.51,.38-.41,.72-1.55-.49-4.82-1.84-4.95-16.15,5.32-16.15,5.32-22.02,4.68-42.21,24.59-42.21,24.59-2.75,3.12-5.6,6.7-8.72,10.83-14.31,18.99-21.84,41.66-21.84,65.51,0,60.28,49,109.28,109.28,109.28,12.39,0,24.9-2.76,36.56-6.8-54.96-10.19-75.55-56.79-82.8-83.67Z"/><path class="cls-1" d="M114.6,48.08c0-1.01-.55-1.84-1.28-2.29h-.09c-1.38-1.01-1.1-2.75-1.1-2.75,.92-4.59-3.03-6.33-4.68-5.96-1.65,.37-2.57-.28-2.57-.28-.92-.64-1.01-1.38-1.01-1.38h0c-.09-1.38-1.1-1.93-1.1-1.93-2.57-1.65-3.85,.64-3.85,.64-.28,.46-1.47,2.29-.37,4.77,.37,.92,1.19,2.11,2.94,2.84,0,0,3.67,1.74,4.95,5.6h0v.09h0c.28,.73,.64,1.28,1.01,1.65,.64,.73,1.74,1.56,3.49,1.74h.92c1.56,.09,2.84-1.19,2.75-2.75"/></g><g><g><path class="cls-4" d="M128,92.77s16.15,8.9,19.82-5.23c3.76-14.04-10.37-23.76-19.82-18.53-9.45,5.23,0,21.56,0,21.56v2.2Z"/><path class="cls-1" d="M133.05,76.8c-3.58,2.02,0,8.17,0,8.17v.73s6.15,3.4,7.52-1.93c1.38-5.32-3.95-8.9-7.52-6.97Z"/><g><path class="cls-3" d="M128,81.66s-.18-.18-.37-.55-.46-.83-.73-1.56c-.09-.37-.18-.73-.28-1.1-.09-.37-.09-.83-.09-1.28,0-.18,.09-.46,.09-.73s.09-.46,.18-.73,.09-.46,.18-.73c.09-.18,.18-.46,.28-.64,.18-.46,.55-.83,.83-1.19,.18-.18,.37-.37,.55-.55,.18-.18,.37-.28,.55-.46,.37-.28,.73-.46,1.1-.64,.37-.18,.73-.28,1.1-.37,.37-.09,.64-.18,.92-.18h1.38s-.18,.18-.46,.37c-.18,.09-.37,.28-.55,.37-.18,.09-.46,.37-.64,.55-.18,.18-.55,.37-.73,.64-.28,.18-.46,.46-.73,.73-.18,.28-.46,.55-.64,.83-.18,.28-.46,.55-.55,.92-.09,.18-.18,.28-.28,.46-.09,.18-.09,.37-.18,.46-.18,.37-.18,.64-.37,1.01-.09,.37-.18,.64-.18,1.01-.09,.37-.09,.64-.18,1.01-.09,.64-.09,1.19-.18,1.56,0,.55,0,.83,0,.83"/><path class="cls-3" d="M133.78,76.34s.09-.18,.46-.37c.28-.28,.73-.55,1.28-.83,.28-.09,.64-.28,1.01-.37,.18,0,.37-.09,.55-.09s.37,0,.64-.09h.64c.18,0,.46,0,.64,.09s.46,.09,.64,.18c.18,.09,.46,.18,.64,.37,.46,.18,.83,.55,1.1,.92,.28,.37,.55,.73,.73,1.1,.18,.37,.28,.83,.37,1.19,.09,.37,.09,.73,.09,1.01v.46c0,.18,0,.28-.09,.37,0,.28-.09,.46-.09,.64-.09,.37-.18,.55-.18,.55,0,0-.09-.18-.28-.46l-.28-.55c-.09-.18-.18-.46-.37-.73-.18-.28-.28-.46-.46-.73s-.37-.46-.55-.73c-.18-.18-.37-.46-.64-.64-.28-.18-.46-.37-.73-.46-.09-.09-.28-.18-.37-.18-.18,0-.28-.09-.37-.18-.28-.09-.55-.18-.92-.28-.18,0-.28-.09-.46-.09s-.28,0-.46-.09c-.28-.09-.64,0-.92-.09h-1.47c0,.09-.18,.09-.18,.09"/></g></g><g><path class="cls-4" d="M197.64,101.76s8.9-24.87,20.83-6.15c0,0,11.84,12.11-10.37,15.78-22.39,3.67-10.46-9.63-10.46-9.63"/><path class="cls-1" d="M204.8,100.75s2.75-7.62,6.42-1.93c0,0,3.67,3.67-3.21,4.86-6.88,1.19-3.21-2.94-3.21-2.94"/></g><path class="cls-4" d="M188.65,91.39c-43.03-16.33-88.54-15.87-109.83,40.1-21.29,55.88,17.07,107.08,34.13,106.25,0,0,94.42,13.12,108.36-61.75,0,0,10.37-68.27-32.67-84.6Z"/><g><g><path class="cls-1" d="M154.61,135.34s-36.52-11.19-45.14,23.67c0,0-7.16,18.63,33.77,25.97,0,0,36.79,8.44,39.91-7.62,3.21-16.15,.55-36.61-28.54-42.02"/><path class="cls-4" d="M154.7,141.58c-8.62-2.02-16.61,.28-17.8,5.14l-.37,1.38c.55,1.56,2.48,2.02,4.22,1.01l1.93,.46c3.03,.73,4.86,3.76,4.13,6.7l-.18,.55c-.28,.55,.73,1.47,2.2,2.11l1.56,.37,1.65,.37c1.74,.18,3.21-.18,3.21-.83l.09-.55c.73-3.03,3.67-4.86,6.7-4.13l1.74,.46c1.1,1.56,2.84,1.84,3.95,.73l.28-1.28c1.38-4.77-4.68-10.37-13.3-12.48Z"/><path class="cls-4" d="M123.78,159.66s3.49,1.1,8.63,2.75c1.19,.37,2.48,.83,3.85,1.19,1.28,.46,2.66,.83,4.04,1.19s2.84,.73,4.22,1.1c1.47,.37,2.84,.64,4.31,.92,.73,.18,1.47,.28,2.2,.37s1.47,.28,2.2,.37c1.47,.18,2.84,.37,4.31,.55,1.38,.18,2.84,.37,4.22,.37,.73,.09,1.38,.09,2.02,.18s1.28,.09,1.93,.18c1.28,.09,2.48,.18,3.58,.18,1.1,.09,2.11,.18,2.94,.18s1.47,.18,1.93,.18c.46,.09,.73,.09,.73,.09,0,0-.18,.18-.46,.55s-.73,.92-1.28,1.56c-.55,.64-1.38,1.28-2.29,2.11s-2.02,1.47-3.3,2.29c-1.28,.73-2.66,1.47-4.31,2.02-1.56,.64-3.3,1.1-5.14,1.47-1.84,.37-3.76,.55-5.78,.46-1.01,0-2.02,0-3.03-.18-1.01-.09-2.02-.28-2.94-.46-2.02-.37-3.95-1.01-5.78-1.65-1.84-.73-3.58-1.65-5.14-2.57-1.56-1.01-3.03-2.11-4.22-3.21-1.28-1.1-2.29-2.29-3.21-3.49-1.84-2.29-2.94-4.5-3.58-6.15-.37-.83-.46-1.47-.64-1.93,.09-.37,0-.64,0-.64"/></g><g><path class="cls-1" d="M134.33,109.65c-13.67,2.75-19.45,20.74-.83,18.26,12.11-1.65,15.69-19.54,.83-18.26"/><path class="cls-4" d="M137.91,121.49c-.73,2.57-3.39,4.04-5.87,3.3-2.57-.73-4.04-3.39-3.3-5.87,.73-2.57,3.39-4.04,5.87-3.3,2.57,.64,4.04,3.3,3.3,5.87"/></g><g><path class="cls-1" d="M186.82,123.6c10.18,9.54,5.6,27.8-8.9,15.97-9.45-7.8-3.03-24.87,8.9-15.97"/><path class="cls-4" d="M177.55,131.76c-.73,2.57,.73,5.23,3.3,5.87,2.57,.73,5.23-.73,5.87-3.3,.73-2.57-.73-5.23-3.3-5.87-2.48-.73-5.14,.73-5.87,3.3"/></g></g></g><g><g><path class="cls-3" d="M168.37,88.64h.92c.55,0,1.38,.09,2.29,.18,.92,.09,2.02,.37,3.21,.64s2.39,.64,3.58,1.01c1.19,.37,2.39,.92,3.49,1.38,1.1,.55,2.11,1.01,2.94,1.56,.37,.28,.73,.55,1.1,.83,.28,.28,.55,.46,.73,.64,.37,.46,.55,.73,.55,.73,0,0-.37-.09-.83-.28-.28-.09-.55-.18-.92-.28s-.83-.18-1.19-.37c-.46-.18-.92-.28-1.47-.46s-1.01-.28-1.65-.46c-.55-.18-1.1-.37-1.74-.55-.55-.18-1.19-.37-1.74-.55-2.39-.83-4.68-1.65-6.42-2.48-.83-.37-1.56-.73-2.11-1.01-.46-.37-.73-.55-.73-.55"/><path class="cls-3" d="M84.42,131.95s0-.28,.18-.73c.09-.46,.28-1.19,.55-1.93,.28-.83,.64-1.65,1.1-2.66,.46-.92,1.01-1.93,1.56-2.84s1.19-1.84,1.93-2.66c.37-.37,.64-.83,1.01-1.1,.37-.37,.64-.64,1.01-.92s.64-.55,.92-.64c.28-.18,.55-.37,.83-.46,.46-.18,.73-.28,.73-.28,0,0-.18,.28-.46,.55-.18,.18-.28,.46-.46,.73s-.37,.64-.55,.92c-.18,.37-.46,.73-.64,1.1-.28,.37-.46,.83-.73,1.19-.28,.46-.55,.92-.83,1.28-.28,.46-.55,.92-.83,1.38-1.1,1.84-2.39,3.58-3.39,4.86-.55,.64-.92,1.19-1.28,1.56-.46,.46-.64,.64-.64,.64"/><path class="cls-3" d="M97.63,107.63s.09-.28,.28-.64c.18-.37,.46-.92,.83-1.56,.73-1.19,1.93-2.75,3.3-4.04,.73-.64,1.47-1.28,2.2-1.74,.73-.46,1.56-.92,2.29-1.1,.37-.09,.73-.18,1.01-.28,.28-.09,.55-.09,.83-.09,.46,0,.64,.18,.64,.09,0,0-.09,0-.18,.09-.09,0-.28,.09-.46,.18-.18,.09-.37,.28-.55,.37-.18,.18-.46,.37-.73,.55-1.01,.92-2.29,2.11-3.58,3.39-1.38,1.19-2.75,2.48-3.85,3.3-.55,.46-1.1,.73-1.47,1.01-.37,.37-.55,.46-.55,.46"/><path class="cls-3" d="M97.63,123.23s0-.28,.09-.64,.18-.92,.37-1.56c.37-1.28,1.01-2.94,1.74-4.5,.73-1.56,1.65-3.03,2.39-4.13,.37-.55,.64-1.01,.92-1.28,.09-.18,.18-.28,.18-.37s.09-.18,.09-.18l.09,.18c0,.09,.09,.28,.09,.46,0,.46,0,1.01-.09,1.65-.18,1.38-.83,3.03-1.56,4.59-.73,1.56-1.74,3.03-2.57,4.04-.46,.55-.83,.92-1.1,1.19-.46,.46-.64,.55-.64,.55"/><path class="cls-3" d="M89.28,146.63s-.09-.28-.18-.73-.28-1.19-.37-1.93c-.18-1.65-.18-3.76,0-5.96,.28-2.2,.83-4.31,1.56-5.87,.37-.73,.83-1.38,1.19-1.74,.18-.18,.37-.28,.46-.37,.09-.09,.18-.09,.18-.09,0,0,0,.09-.09,.18-.09,.09-.09,.28-.18,.55-.09,.46-.28,1.1-.37,1.84-.18,1.56-.37,3.67-.64,5.69-.28,2.11-.55,4.22-.92,5.78-.18,.83-.37,1.47-.55,1.93,0,.46-.09,.73-.09,.73"/><path class="cls-3" d="M109.01,110.66s-.09-.28-.09-.73,0-1.19,.09-2.02c.09-.37,.09-.83,.28-1.28,.09-.46,.28-.92,.46-1.38s.46-1.01,.73-1.47,.55-.92,.92-1.38l.55-.64c.18-.18,.37-.37,.55-.55,.37-.37,.83-.73,1.28-1.01,.46-.37,.92-.55,1.28-.73,.18-.09,.46-.18,.64-.28s.46-.18,.64-.18c.37-.09,.73-.28,1.1-.28,.37-.09,.64-.09,.83-.09h.73s-.18,.18-.64,.46c-.18,.09-.46,.28-.64,.46-.28,.18-.55,.46-.83,.64-.18,.09-.28,.18-.46,.37-.18,.09-.28,.28-.46,.46-.28,.28-.64,.55-1.01,.92-.18,.18-.37,.37-.46,.46-.18,.18-.28,.37-.46,.55l-.46,.55-.46,.55c-.28,.37-.55,.83-.83,1.19-.28,.37-.55,.83-.73,1.19s-.46,.73-.64,1.19l-.55,1.1c-.37,.64-.64,1.28-.83,1.65-.46,0-.55,.28-.55,.28"/><path class="cls-3" d="M113.96,95.61s.09-.28,.28-.64c.18-.37,.55-.92,1.01-1.56,.92-1.19,2.29-2.66,3.95-3.76,.83-.55,1.74-1.01,2.66-1.38s1.84-.55,2.66-.55c.37,0,.73,.09,1.1,.09,.28,.09,.55,.18,.83,.28,.18,.09,.37,.18,.46,.28s.18,.09,.18,.09h-.18c-.09,0-.28,0-.46,.09-.18,0-.46,.09-.73,.18-.28,.09-.55,.18-.83,.28-1.19,.46-2.75,1.47-4.31,2.48-1.56,1.01-3.12,2.11-4.31,2.84-.64,.37-1.19,.64-1.56,.92-.55,.28-.73,.37-.73,.37"/><path class="cls-3" d="M89.28,157.82s.09,.18,.09,.64c.09,.37,.18,.92,.28,1.56,.18,1.28,.28,2.94,.55,4.5,.09,.83,.18,1.56,.37,2.29,.18,.73,.37,1.38,.55,1.84,.09,.28,.18,.55,.37,.73,.09,.18,.28,.37,.37,.55,.28,.28,.37,.46,.37,.46h-.18c-.09,0-.28,0-.46-.09s-.46-.18-.64-.28c-.28-.09-.55-.37-.83-.55-.55-.46-1.01-1.19-1.38-2.02-.18-.37-.37-.83-.46-1.28s-.18-.92-.28-1.38c-.28-1.84,0-3.58,.46-4.86,.18-.64,.46-1.19,.64-1.47,0-.46,.18-.64,.18-.64"/></g><g><path class="cls-3" d="M52.3,183.33s.18,.37,.46,1.01,.64,1.47,1.19,2.48c.28,.55,.55,1.1,.83,1.65,.28,.55,.64,1.19,.92,1.84,.37,.64,.73,1.28,1.1,1.84,.37,.64,.73,1.28,1.19,1.84l.64,.92c.18,.28,.46,.55,.64,.92,.18,.28,.37,.64,.64,.92,.18,.28,.46,.55,.64,.83,.46,.55,.83,1.1,1.28,1.56,.18,.28,.37,.46,.64,.73,.18,.18,.37,.46,.64,.64,.37,.37,.73,.83,1.1,1.1,.37,.28,.64,.64,.92,.83,.46,.46,.73,.73,.73,.73,0,0-.37-.09-1.01-.37-.28-.09-.73-.28-1.1-.55-.46-.18-.92-.55-1.38-.83-.28-.18-.55-.37-.83-.46-.28-.18-.55-.37-.73-.64-.55-.46-1.1-.92-1.56-1.47-.55-.55-1.1-1.1-1.56-1.74-.28-.28-.46-.64-.73-.92l-.64-1.01c-.46-.64-.83-1.38-1.19-2.02s-.64-1.38-1.01-2.11c-.28-.73-.55-1.38-.73-2.02-.18-.64-.37-1.28-.46-1.84-.18-.55-.18-1.1-.28-1.56-.09-.46-.09-.92-.09-1.19-.28-.73-.28-1.1-.28-1.1"/><path class="cls-3" d="M66.89,193.15s.09,.09,.28,.37c.18,.18,.46,.55,.83,.92s.83,.83,1.28,1.38c.55,.46,1.01,1.1,1.65,1.74,.64,.64,1.28,1.28,2.02,1.93,.73,.73,1.56,1.38,2.29,2.11,.83,.73,1.74,1.38,2.57,2.02,.92,.64,1.84,1.38,2.75,1.93,.46,.28,.92,.64,1.47,.92,.46,.28,1.01,.55,1.47,.83s1.01,.55,1.47,.83,1.01,.46,1.47,.73c.46,.18,.92,.46,1.47,.64,.46,.18,.92,.37,1.38,.55s.92,.37,1.38,.55,.92,.28,1.28,.37c.83,.28,1.56,.46,2.29,.73,.73,.18,1.28,.28,1.84,.37,1.01,.28,1.56,.37,1.56,.37,0,0-.55,0-1.65,.09h-1.93c-.73,0-1.56-.18-2.39-.28-.46-.09-.92-.09-1.38-.18s-.92-.28-1.47-.37c-.46-.09-1.01-.28-1.56-.37-.55-.18-1.01-.37-1.56-.55s-1.1-.46-1.56-.64c-.55-.28-1.01-.55-1.56-.83s-1.1-.55-1.56-.83c-.55-.37-1.01-.64-1.56-1.01-1.01-.64-1.93-1.38-2.94-2.11-.46-.37-.92-.73-1.28-1.1-.46-.37-.83-.73-1.28-1.19-.83-.83-1.56-1.56-2.2-2.39-.37-.37-.64-.73-.92-1.1-.28-.37-.55-.73-.83-1.1-.55-.73-1.01-1.38-1.38-2.02s-.73-1.19-.92-1.65c-.55-1.1-.83-1.65-.83-1.65"/><path class="cls-3" d="M69.37,208.93s.37,.18,1.01,.55,1.56,.83,2.57,1.47c1.1,.64,2.29,1.38,3.58,2.11,1.28,.83,2.66,1.65,4.04,2.48,1.38,.83,2.75,1.65,4.04,2.39,1.28,.73,2.57,1.38,3.67,1.84,.55,.18,1.1,.46,1.56,.55s.92,.28,1.19,.37c.37,.09,.64,.09,.83,.09h.28l-.28,.09c-.18,.09-.46,.18-.83,.18-.37,.09-.83,.09-1.38,.09-.28,0-.55,0-.83-.09-.28,0-.55-.09-.92-.09-.64-.09-1.28-.28-2.02-.46-.73-.18-1.38-.46-2.11-.73s-1.47-.64-2.2-1.01-1.47-.83-2.2-1.19c-1.38-.83-2.75-1.84-4.04-2.75-.64-.46-1.19-.92-1.74-1.38s-1.01-.92-1.47-1.38c-.92-.83-1.65-1.65-2.11-2.11-.37-.73-.64-1.01-.64-1.01"/><path class="cls-3" d="M34.78,114.88s-.64,2.57-1.1,6.33c-.18,.92-.18,2.02-.28,3.12,0,.55-.09,1.1-.09,1.65s-.09,1.19-.09,1.74v1.84c0,.64,.09,1.19,.09,1.84,0,1.28,.18,2.48,.28,3.76l.09,.92,.18,.92c.09,.64,.18,1.28,.28,1.84,.18,1.19,.46,2.39,.73,3.58,.09,.55,.28,1.1,.46,1.74,.18,.55,.28,1.1,.46,1.65,.28,1.1,.64,2.02,.92,2.94,.18,.46,.28,.92,.46,1.28,.09,.18,.09,.46,.18,.64s.18,.37,.18,.55c.28,.73,.55,1.38,.73,1.93,.37,1.1,.64,1.65,.64,1.65,0,0-.37-.55-1.01-1.47-.28-.46-.73-1.1-1.1-1.74-.46-.64-.83-1.47-1.28-2.39-.46-.92-.92-1.84-1.28-2.94s-.83-2.2-1.19-3.39c-.18-.64-.37-1.19-.46-1.84-.18-.64-.37-1.28-.46-1.93-.09-.64-.18-1.28-.37-1.93l-.18-1.01-.09-1.01c-.09-1.28-.18-2.66-.18-3.95v-1.93c0-.64,.09-1.28,.09-1.93,.09-1.28,.28-2.39,.46-3.58,.18-1.1,.37-2.2,.73-3.12,.09-.46,.28-.92,.37-1.38,.18-.46,.28-.83,.37-1.19,.28-.73,.55-1.38,.73-1.93,.18-.55,.46-.92,.55-1.19,.09,0,.18-.09,.18-.09"/><path class="cls-3" d="M35.42,160.39s.18,.28,.37,.73c.18,.46,.55,1.19,.92,2.02,.73,1.65,1.56,3.76,2.39,5.87,.46,1.1,.92,2.11,1.38,3.03s1.01,1.74,1.47,2.39c.28,.28,.55,.55,.73,.83,.28,.18,.46,.46,.73,.55,.46,.28,.73,.37,.73,.37h-.18c-.18,0-.37,.09-.64,0-.28,0-.64-.09-1.01-.18-.18-.09-.37-.18-.55-.28-.18-.09-.37-.18-.64-.37-.37-.28-.83-.64-1.19-1.01s-.73-.83-1.1-1.28c-.37-.46-.64-1.01-.92-1.56s-.55-1.1-.83-1.65c-.92-2.29-1.47-4.68-1.56-6.42-.09-.92-.09-1.65-.09-2.2,0-.46,0-.83,0-.83"/><path class="cls-3" d="M44.13,143.05s.09,.37,.28,1.01c.09,.64,.28,1.65,.46,2.75,.37,2.29,.73,5.32,1.1,8.26,.37,3.03,.73,5.96,1.19,8.17,.09,.55,.28,1.01,.37,1.47,.18,.46,.28,.83,.46,1.1,.18,.28,.28,.55,.37,.64,.09,.18,.18,.28,.18,.28,0,0-.09-.09-.28-.18-.18-.09-.37-.28-.64-.46-.28-.28-.55-.55-.83-1.01-.28-.37-.55-.92-.83-1.38-.55-1.1-1.01-2.39-1.38-3.76-.37-1.47-.64-2.94-.83-4.5-.37-3.12-.37-6.15-.18-8.53,.09-1.19,.18-2.11,.37-2.84,.09-.64,.18-1.01,.18-1.01"/><path class="cls-3" d="M55.05,166.72s.09,.28,.18,.73c.09,.28,.18,.55,.18,.83l.28,1.1c.18,.83,.37,1.74,.64,2.75,.09,.46,.18,1.01,.37,1.56,.09,.55,.28,1.01,.37,1.56s.28,1.01,.37,1.56c.18,.46,.28,1.01,.46,1.47s.37,.92,.46,1.38c.18,.37,.37,.83,.46,1.19,.18,.37,.37,.64,.46,1.01,.09,.28,.28,.55,.46,.73,.28,.46,.37,.73,.37,.73,0,0-.28-.09-.73-.37-.18-.18-.55-.28-.73-.55-.28-.28-.55-.46-.92-.83-.28-.37-.55-.73-.92-1.1-.28-.46-.55-.92-.83-1.38s-.46-1.01-.64-1.56-.37-1.1-.55-1.65c-.28-1.1-.46-2.29-.55-3.39s0-2.11,.09-2.94c.09-.83,.28-1.56,.37-2.02,.28-.55,.37-.83,.37-.83"/><path class="cls-3" d="M62.49,173.88s.18,.28,.46,.73c.18,.18,.28,.46,.55,.83,.18,.28,.46,.64,.64,1.01,.46,.73,1.01,1.65,1.65,2.48,.18,.18,.28,.46,.46,.64s.37,.46,.46,.64c.37,.46,.73,.92,1.01,1.38,.37,.46,.73,.83,1.1,1.28,.37,.37,.73,.83,1.19,1.1,.18,.18,.37,.37,.55,.46l.28,.28c.09,.09,.18,.18,.28,.18,.18,.18,.37,.28,.55,.37,.18,.18,.37,.28,.55,.37,.37,.18,.73,.37,1.01,.55,.37,.18,.64,.28,.83,.37,.46,.18,.73,.37,.73,.37,0,0-.28,0-.83,.09-.28,0-.64,.09-1.01,0s-.83-.09-1.28-.18-.92-.28-1.47-.55c-.28-.09-.55-.18-.73-.37-.28-.18-.55-.28-.73-.46-.28-.18-.46-.37-.73-.55s-.46-.37-.73-.64c-.46-.46-.92-.92-1.28-1.38-.37-.55-.83-1.01-1.1-1.56-.37-.55-.64-1.1-.92-1.56-.55-1.1-.92-2.11-1.1-3.03-.28-.92-.37-1.65-.46-2.2,.09-.28,.09-.64,.09-.64"/><path class="cls-3" d="M48.63,133.69s.09,.37,.37,.92c.18,.55,.46,1.47,.73,2.48,.64,2.02,1.28,4.77,1.93,7.43,.64,2.66,1.28,5.32,1.93,7.34,.18,.46,.37,.92,.46,1.28,.18,.37,.28,.73,.46,1.01s.28,.46,.37,.64l.09,.18s-.09,0-.18-.09c-.18-.09-.37-.18-.64-.46-.28-.18-.55-.46-.83-.83s-.64-.73-.92-1.19c-1.19-1.84-2.29-4.59-2.94-7.34s-1.01-5.6-1.01-7.8c0-1.1,0-1.93,.09-2.57,0-.64,.09-1.01,.09-1.01"/><path class="cls-3" d="M38.72,130.66s-.09-.46-.09-1.19-.09-1.84,0-3.12c0-.64,.09-1.38,.18-2.11s.18-1.56,.28-2.29c.09-.83,.28-1.65,.46-2.48s.37-1.65,.64-2.48c.28-.83,.55-1.65,.83-2.48s.64-1.56,1.01-2.29,.83-1.47,1.28-2.02c.46-.64,.92-1.19,1.38-1.65s1.01-.92,1.47-1.19,.92-.46,1.28-.64,.64-.18,.92-.18h.28s-.09,.09-.28,.18c-.18,.09-.46,.28-.73,.46s-.64,.55-.92,.92c-.37,.37-.64,.83-1.01,1.28-.37,.55-.64,1.1-.92,1.74s-.55,1.28-.92,2.02c-.28,.73-.55,1.47-.83,2.2-.28,.73-.55,1.56-.73,2.39-.46,1.56-.92,3.21-1.28,4.77s-.83,2.94-1.1,4.22c-.37,1.19-.64,2.29-.83,3.03-.28,.55-.37,.92-.37,.92"/><path class="cls-3" d="M28.35,111.67s.09-.37,.18-1.01c.18-.64,.37-1.56,.73-2.57,.73-2.11,1.93-4.77,3.39-7.25,1.56-2.48,3.39-4.86,5.23-6.24,.46-.37,.92-.64,1.28-.92s.73-.46,1.1-.55c.28-.09,.55-.18,.73-.18s.28-.09,.28-.09c0,0-.09,.09-.18,.18-.09,.09-.37,.28-.55,.46-.28,.18-.46,.46-.73,.83s-.55,.73-.92,1.1c-1.28,1.65-2.75,4.13-4.22,6.51-1.47,2.39-2.94,4.86-4.22,6.7-.55,.92-1.1,1.65-1.47,2.2-.46,.46-.64,.83-.64,.83"/><path class="cls-3" d="M38.72,105.15s.18-.28,.55-.64c.37-.46,.83-1.01,1.38-1.74,.55-.73,1.19-1.56,1.84-2.48,.28-.46,.64-.92,.92-1.47,.37-.46,.64-1.01,.92-1.47,.37-.46,.55-1.01,.92-1.56,.28-.46,.55-1.01,.83-1.56,.28-.46,.46-1.01,.73-1.47s.46-.92,.64-1.28c.18-.46,.37-.83,.55-1.19,.09-.37,.28-.64,.37-.92,.18-.55,.37-.83,.37-.83,0,0,0,.28,.09,.92v1.01c0,.37-.09,.83-.09,1.28-.09,.46-.09,1.01-.28,1.56-.18,.55-.28,1.1-.46,1.65s-.37,1.19-.73,1.74c-.28,.55-.55,1.19-.92,1.74l-.55,.83c-.18,.28-.37,.55-.55,.73-.37,.55-.83,1.01-1.19,1.47-.83,.92-1.65,1.65-2.48,2.2-.37,.28-.73,.55-1.1,.73-.37,.18-.64,.37-.92,.46-.55,.18-.83,.28-.83,.28"/><path class="cls-3" d="M35.42,88.64s.09-.28,.28-.73c.18-.46,.46-1.19,.83-1.93,.18-.37,.46-.83,.64-1.19,.28-.46,.55-.92,.83-1.28,.28-.46,.64-.92,1.01-1.38s.73-.83,1.19-1.28c.37-.46,.83-.83,1.28-1.19,.46-.37,.92-.73,1.38-1.01s.92-.55,1.38-.83c.46-.18,.92-.37,1.38-.55,.46-.18,.83-.18,1.19-.28s.64-.09,.92-.09h.83s-.28,.18-.64,.46c-.18,.09-.46,.28-.73,.46s-.55,.46-.92,.64c-.28,.28-.64,.55-1.01,.83-.37,.28-.73,.64-1.1,1.01-.37,.37-.73,.73-1.1,1.1-.37,.37-.83,.73-1.19,1.1-1.56,1.56-3.03,3.12-4.31,4.31-.64,.64-1.1,1.1-1.47,1.47-.37,.18-.64,.37-.64,.37"/><path class="cls-3" d="M51.84,67.62s.18-.28,.55-.73,.83-1.01,1.47-1.74c1.19-1.38,2.94-3.12,4.68-4.77,1.84-1.65,3.67-3.21,5.05-4.31,.73-.55,1.28-1.1,1.65-1.47,.18-.18,.28-.37,.37-.46s.09-.18,.09-.18v.28c0,.18,0,.37-.18,.64-.18,.55-.55,1.28-1.1,2.11-1.01,1.65-2.66,3.49-4.5,5.14s-3.76,3.12-5.41,4.13c-.83,.46-1.47,.83-1.93,1.1-.46,.18-.73,.28-.73,.28"/><path class="cls-3" d="M52.3,82.03s0-.18,.09-.55c.09-.28,.18-.73,.37-1.28,.37-1.01,1.01-2.2,1.84-3.3,.83-1.1,1.74-2.11,2.57-2.75,.46-.37,.83-.55,1.1-.73,.28-.18,.46-.28,.46-.28,0,0,0,.18-.09,.55-.09,.28-.18,.73-.37,1.28-.37,1.01-1.01,2.2-1.84,3.3-.83,1.1-1.74,2.11-2.57,2.75-.46,.37-.83,.55-1.1,.73-.28,.18-.46,.28-.46,.28"/><path class="cls-3" d="M65.7,77.63s0-.28-.09-.64v-1.65c.09-1.28,.37-3.03,.83-4.68,.46-1.65,1.1-3.3,1.74-4.4,.28-.55,.64-1.1,.83-1.38,.18-.37,.37-.55,.37-.55,0,0,0,.28,.09,.64v1.65c-.09,1.28-.37,3.03-.83,4.68-.46,1.65-1.1,3.3-1.74,4.4-.28,.55-.64,1.1-.83,1.38-.18,.37-.37,.55-.37,.55"/><path class="cls-3" d="M69.37,48.26s.18-.18,.55-.46,.92-.64,1.56-1.1c1.28-.83,3.12-1.74,4.95-2.48,1.84-.73,3.76-1.28,5.32-1.56,.73-.18,1.38-.28,1.84-.28,.46-.09,.73-.09,.73-.09,0,0-.18,.18-.55,.46s-.92,.64-1.56,1.1c-1.28,.83-3.12,1.74-4.95,2.48-1.84,.73-3.76,1.28-5.32,1.56-.73,.18-1.38,.28-1.84,.28-.46,.09-.73,.09-.73,.09"/><path class="cls-3" d="M72.58,58.27s.09-.28,.28-.64c.18-.46,.55-1.01,1.01-1.65s1.1-1.38,1.84-2.11c.37-.37,.73-.73,1.19-1.01,.18-.18,.46-.37,.64-.46l.64-.46c.46-.28,.92-.55,1.47-.83,.46-.28,1.01-.46,1.47-.64s1.01-.28,1.47-.37c.46-.09,.92-.09,1.38-.09s.83,.09,1.19,.09,.64,.18,.83,.18c.46,.18,.73,.28,.73,.28,0,0-.28,.09-.73,.18-.18,.09-.46,.09-.83,.18-.28,.09-.64,.18-1.01,.28-.37,.18-.73,.28-1.1,.46-.37,.18-.73,.37-1.19,.55-.37,.28-.83,.46-1.19,.73s-.83,.46-1.28,.83c-.46,.28-.83,.55-1.19,.83-.37,.28-.83,.55-1.19,.83-.83,.55-1.56,1.1-2.2,1.47-.64,.46-1.19,.83-1.56,1.01-.46,.28-.64,.37-.64,.37"/></g></g></g></g></g></svg>